{"title":"Instant Mom S03E12 HDTV EN-SUB x264-W4F","uid":12629455,"size":167901583,"categoryP":"video","categoryS":"tv_shows","magnet":"?xt=urn:btih:2ce6c9c2df23f649025b4b4dc36b117fb3e3fb3b&amp;dn=Instant+Mom+S03E12+HDTV+EN-SUB+x264-W4F&amp;tr=udp%3A%2F%2Ftracker.leechers-paradise.org%3A6969&amp;tr=udp%3A%2F%2Fzer0day.ch%3A1337&amp;tr=udp%3A%2F%2Fopen.demonii.com%3A1337&amp;tr=udp%3A%2F%2Ftracker.coppersurfer.tk%3A6969&amp;tr=udp%3A%2F%2Fexodus.desync.com%3A6969","seeders":0,"leechers":1,"uploader":"Mulva1989","files":2,"time":1445818976,"description":"Instant Mom S03E12 HDTV EN-SUB x264-W4F\r\n\r\nThe Phillips get a visit from their cousin, but Charlie worries he'll be a bad influence on James. Also, Aaron and Maggie help Gabby prepare for a date.\r\n\r\nScreens @ \nhttp://extraimago.com/images/2015/10/25/instant.mom.s03e12.hdtv.x264-w4f.mp4_snapshot_09.48_2015.10.26_00.16.25.jpg \nhttp://extraimago.com/images/2015/10/25/instant.mom.s03e12.hdtv.x264-w4f.mp4.jpg\r\n\r\nFormat                      : MPEG-4\r\nFormat profile              : Base Media\r\nCodec ID                    : isom\r\nFile size                   : 160 MiB\r\nDuration                    : 20mn 30s\r\nOverall bit rate mode       : Variable\r\nOverall bit rate            : 1 091 Kbps\r\nEncoded date                : UTC 2015-10-25 01:26:42\r\nTagged date                 : UTC 2015-10-25 01:26:42\r\n\r\nVideo\r\nID                          : 1\r\nFormat                      : AVC\r\nFormat/Info                 : Advanced Video Codec\r\nFormat profile              :   \r\nFormat settings, CABAC      : Yes\r\nFormat settings, ReFrames   : 5 frames\r\nCodec ID                    : avc1\r\nCodec ID/Info               : Advanced Video Coding\r\nDuration                    : 20mn 30s\r\nBit rate                    : 979 Kbps\r\nMaximum bit rate            : 2 133 Kbps\r\nWidth                       : 720 pixels\r\nHeight                      : 404 pixels\r\nDisplay aspect ratio        : 16:9\r\nFrame rate mode             : Constant\r\nFrame rate                  : 23.976 fps\r\nColor space                 : YUV\r\nChroma subsampling          : 4:2:0\r\nBit depth                   : 8 bits\r\nScan type                   : Progressive\r\nBits/(Pixel*Frame)          : 0.140\r\nStream size                 : 144 MiB (90%)\r\nWriting library             : x264 core 148 r2597 e86f3a1\r\nEncoding settings           : cabac=1 / ref=5 / deblock=1:0:0 / analyse=0x3:0x113 / me=umh / subme=8 / psy=1 / psy_rd=1.00:0.00 / mixed_ref=1 / me_range=16 / chroma_me=1 / trellis=1 / 8x8dct=1 / cqm=0 / deadzone=21,11 / fast_pskip=1 / chroma_qp_offset=-2 / threads=12 / lookahead_threads=2 / sliced_threads=0 / nr=0 / decimate=1 / interlaced=0 / bluray_compat=0 / constrained_intra=0 / bframes=3 / b_pyramid=2 / b_adapt=2 / b_bias=0 / direct=3 / weightb=1 / open_gop=0 / weightp=2 / keyint=250 / keyint_min=25 / scenecut=40 / intra_refresh=0 / rc_lookahead=50 / rc=crf / mbtree=1 / crf=20.0 / qcomp=0.60 / qpmin=0 / qpmax=69 / qpstep=4 / ip_ratio=1.40 / aq=1:1.00\r\nEncoded date                : UTC 2015-10-25 01:26:42\r\nTagged date                 : UTC 2015-10-25 01:26:59\r\nMatrix coefficients         : BT.709\r\nColor range                 : Limited\r\n\r\nAudio\r\nID                          : 2\r\nFormat                      : AAC\r\nFormat/Info                 : Advanced Audio Codec\r\nFormat profile              : LC\r\nCodec ID                    : 40\r\nDuration                    : 20mn 30s\r\nBit rate mode               : Variable\r\nBit rate                    : 109 Kbps\r\nMaximum bit rate            : 149 Kbps\r\nChannel(s)                  : 2 channels\r\nChannel positions           : Front: L R\r\nSampling rate               : 48.0 KHz\r\nCompression mode            : Lossy\r\nStream size                 : 16.0 MiB (10%)\r\nLanguage                    : English\r\nEncoded date                : UTC 2015-10-25 01:26:59\r\nTagged date                 : UTC 2015-10-25 01:26:59\r\n\r\nText\r\nID                          : 3\r\nFormat                      : Timed Text\r\nCodec ID                    : tx3g\r\nDuration                    : 20mn 30s\r\nBit rate mode               : Variable\r\nBit rate                    : 144 bps\r\nStream size                 : 21.7 KiB (0%)\r\nLanguage                    : English\r\nEncoded date                : UTC 2015-10-25 01:26:59\r\nTagged date                 : UTC 2015-10-25 01:26:59","torrent":{"xt":"urn:btih:2ce6c9c2df23f649025b4b4dc36b117fb3e3fb3b","amp;dn":"Instant+Mom+S03E12+HDTV+EN-SUB+x264-W4F","amp;tr":["udp%3A%2F%2Ftracker.leechers-paradise.org%3A6969","udp%3A%2F%2Fzer0day.ch%3A1337","udp%3A%2F%2Fopen.demonii.com%3A1337","udp%3A%2F%2Ftracker.coppersurfer.tk%3A6969","udp%3A%2F%2Fexodus.desync.com%3A6969"],"infoHash":"2ce6c9c2df23f649025b4b4dc36b117fb3e3fb3b","infoHashBuffer":{"type":"Buffer","data":[44,230,201,194,223,35,246,73,2,91,75,77,195,107,17,127,179,227,251,59]},"announce":[],"urlList":[]}}